#N canvas 227 147 960 632 10;
#X obj 111 174 tgl 15 0 empty empty empty 17 7 0 10 -262144 -1 -1 100
100;
#X obj 111 199 hradio 15 1 0 10 empty empty empty 0 -8 0 10 -262144
-1 -1 9;
#X obj 111 224 hradio 15 1 0 10 empty empty empty 0 -8 0 10 -262144
-1 -1 0;
#X floatatom 254 110 5 0 0 0 - - -, f 5;
#X obj 500 201 +;
#X obj 500 231 +;
#X obj 543 205 * 10;
#X obj 1152 306 cnv 15 100 60 empty empty empty 20 12 0 14 -233017
-66577 0;
#X obj 449 540 outlet~;
#X text 228 110 BPM;
#X text 112 110 bpmclock;
#X text 235 135 MS;
#X floatatom 254 135 5 0 0 0 - - -, f 5;
#X obj 343 421 vline~;
#X msg 277 363 1 0 \, 0 1 1;
#X floatatom 471 301 5 0 0 0 - - -, f 5;
#X obj 448 160 bng 15 250 50 0 empty empty empty 17 7 0 10 -262144
-1 -1;
#X obj 360 246 bng 15 250 50 0 empty empty empty 17 7 0 10 -262144
-1 -1;
#X obj 271 199 bng 15 250 50 0 empty empty empty 17 7 0 10 -262144
-261234 -33289;
#X obj 394 364 metro;
#X obj 342 307 /;
#X msg 254 276 60000;
#X obj 589 333 / 60;
#X obj 203 29 inlet;
#X obj 571 472 outlet;
#X obj 507 499 outlet;
#X connect 0 0 4 0;
#X connect 0 0 16 0;
#X connect 1 0 6 0;
#X connect 1 0 16 0;
#X connect 2 0 5 1;
#X connect 2 0 17 0;
#X connect 3 0 22 0;
#X connect 4 0 5 0;
#X connect 5 0 15 0;
#X connect 5 0 3 0;
#X connect 6 0 4 1;
#X connect 13 0 8 0;
#X connect 14 0 13 0;
#X connect 15 0 20 1;
#X connect 16 0 4 0;
#X connect 16 0 21 0;
#X connect 16 0 20 0;
#X connect 17 0 5 0;
#X connect 17 0 21 0;
#X connect 17 0 20 0;
#X connect 19 0 18 0;
#X connect 19 0 14 0;
#X connect 19 0 25 0;
#X connect 20 0 12 0;
#X connect 20 0 19 0;
#X connect 20 0 19 1;
#X connect 21 0 20 0;
#X connect 22 0 24 0;
#X connect 23 0 16 0;
#X connect 23 0 17 0;
#X coords 0 -1 1 1 200 150 2 100 100;
